<svg xmlns="http://www.w3.org/2000/svg" style="display: none;">
  <!-- Plus Icon -->
  <symbol id="icon-plus" viewBox="0 0 24 24" fill="none" stroke="currentColor" stroke-width="2">
    <line x1="12" y1="5" x2="12" y2="19"></line>
    <line x1="5" y1="12" x2="19" y2="12"></line>
  </symbol>
  
  <!-- Chart/Graph Icon -->
  <symbol id="icon-chart" viewBox="0 0 24 24" fill="none" stroke="currentColor" stroke-width="2">
    <line x1="18" y1="20" x2="18" y2="10"></line>
    <line x1="12" y1="20" x2="12" y2="4"></line>
    <line x1="6" y1="20" x2="6" y2="14"></line>
  </symbol>
  
  <!-- Sparkles/Magic Icon -->
  <symbol id="icon-sparkles" viewBox="0 0 24 24" fill="none" stroke="currentColor" stroke-width="2">
    <path d="M12 2L13.5 8.5L20 10L13.5 11.5L12 18L10.5 11.5L4 10L10.5 8.5L12 2Z"></path>
    <circle cx="19" cy="5" r="1.5"></circle>
    <circle cx="5" cy="19" r="1.5"></circle>
    <circle cx="19" cy="19" r="1.5"></circle>
  </symbol>
  
  <!-- Settings/Gear Icon -->
  <symbol id="icon-settings" viewBox="0 0 24 24" fill="none" stroke="currentColor" stroke-width="2">
    <circle cx="12" cy="12" r="3"></circle>
    <path d="M12 1v6m0 6v6m9-9h-6m-6 0H3m15.364-6.364l-4.243 4.243M7.879 16.121l-4.243 4.243m12.728 0l-4.243-4.243M7.879 7.879L3.636 3.636"></path>
  </symbol>
  
  <!-- History/Clock Icon -->
  <symbol id="icon-history" viewBox="0 0 24 24" fill="none" stroke="currentColor" stroke-width="2">
    <circle cx="12" cy="12" r="10"></circle>
    <polyline points="12 6 12 12 16 14"></polyline>
  </symbol>
  
  <!-- Checkmark Icon -->
  <symbol id="icon-check" viewBox="0 0 24 24" fill="none" stroke="currentColor" stroke-width="2">
    <polyline points="20 6 9 17 4 12"></polyline>
  </symbol>
  
  <!-- X/Close Icon -->
  <symbol id="icon-x" viewBox="0 0 24 24" fill="none" stroke="currentColor" stroke-width="2">
    <line x1="18" y1="6" x2="6" y2="18"></line>
    <line x1="6" y1="6" x2="18" y2="18"></line>
  </symbol>
  
  <!-- Rocket Icon -->
  <symbol id="icon-rocket" viewBox="0 0 24 24" fill="none" stroke="currentColor" stroke-width="2">
    <path d="M4.5 16.5c-1.5 1.26-2 5-2 5s3.74-.5 5-2c.71-.84.7-2.13-.09-2.91a2.18 2.18 0 0 0-2.91-.09z"></path>
    <path d="m12 15-3-3a22 22 0 0 1 2-3.95A12.88 12.88 0 0 1 22 2c0 2.72-.78 7.5-6 11a22.35 22.35 0 0 1-4 2z"></path>
    <path d="M9 12H4s.55-3.03 2-4c1.62-1.08 5 0 5 0"></path>
    <path d="M12 15v5s3.03-.55 4-2c1.08-1.62 0-5 0-5"></path>
  </symbol>
  
  <!-- File/Document Icon -->
  <symbol id="icon-file" viewBox="0 0 24 24" fill="none" stroke="currentColor" stroke-width="2">
    <path d="M14 2H6a2 2 0 0 0-2 2v16a2 2 0 0 0 2 2h12a2 2 0 0 0 2-2V8z"></path>
    <polyline points="14 2 14 8 20 8"></polyline>
  </symbol>
  
  <!-- Arrow Right Icon -->
  <symbol id="icon-arrow-right" viewBox="0 0 24 24" fill="none" stroke="currentColor" stroke-width="2">
    <line x1="5" y1="12" x2="19" y2="12"></line>
    <polyline points="12 5 19 12 12 19"></polyline>
  </symbol>
</svg>

